<svg width="270" height="96" viewBox="0 0 270 96" fill="none" xmlns="http://www.w3.org/2000/svg">
<path d="M18.2 95V14.6H21.2V95H18.2ZM5 95V14.6H8V95H5ZM11.6 95V14.6H14.6V95H11.6ZM82.9 95V14.6H85.9V95H82.9ZM69.7 95V14.6H72.7V95H69.7ZM76.3 95V14.6H79.3V95H76.3ZM49.2 48.6L47.4 45.9L66.1 18.8V24.1L49.2 48.6ZM53.2 65.9L24.8 25.3V20.2L55.1 63.3L53.2 65.9ZM53.3 54.4L51.5 51.7L66.1 30.9V36.1L53.3 54.4ZM49.2 71.8L24.8 37V31.7L51 69.1L49.2 71.8ZM57.3 60.1L55.5 57.5L66.1 42.4V47.6L57.3 60.1ZM45.2 77.5L24.8 48.5V43.2L47 74.9L45.2 77.5Z" fill="#FF6200"/>
<path d="M111.3 50.5L97.1 29.8H100.8L109.1 41.9L117.4 29.8H121.1L111 44.7L113.1 47.8L125.5 29.8H129.2L115 50.5H111.3ZM103.2 50.5L89 29.8H92.7L106.9 50.5H103.2ZM110.9 70V52.9H113.9V70H110.9ZM104.3 70V52.9H107.3V70H104.3Z" fill="#060606"/>
<path d="M159.9 64.4C157.233 64.4 155.033 63.9 153.3 62.9C151.633 61.9 150.7 60.6 150.5 59L153.5 58.6C153.567 59.4667 154.167 60.1667 155.3 60.7C156.433 61.1667 157.967 61.4 159.9 61.4C164.167 61.4 166.3 60.4667 166.3 58.6C166.3 57.8 165.867 57.1 165 56.5C164.133 55.8333 162.567 55.1667 160.3 54.5L155.2 53C152.067 52.0667 149.433 50.6667 147.3 48.8C145.233 46.9333 144.2 44.4333 144.2 41.3C144.2 38.9 144.867 36.7667 146.2 34.9C147.6 33.0333 149.5 31.5667 151.9 30.5C154.3 29.3667 156.967 28.8 159.9 28.8C164.167 28.8 167.733 29.8333 170.6 31.9C173.467 33.9667 175.1 36.6333 175.5 39.9L172.5 40.2C172.233 37.6667 170.933 35.6333 168.6 34.1C166.333 32.5667 163.433 31.8 159.9 31.8C156.233 31.8 153.2 32.7 150.8 34.5C148.4 36.3 147.2 38.5667 147.2 41.3C147.2 43.7667 148 45.6667 149.6 47C151.2 48.3333 153.467 49.4333 156.4 50.3L161.9 51.9C166.833 53.3667 169.3 55.5667 169.3 58.5C169.3 60.3667 168.433 61.8333 166.7 62.9C165.033 63.9 162.767 64.4 159.9 64.4ZM159.9 71C155.5 71 151.833 69.9667 148.9 67.9C146.033 65.8333 144.4 63.1667 144 59.9L147 59.5C147.333 62.0333 148.667 64.1 151 65.7C153.333 67.2333 156.3 68 159.9 68C163.767 68 166.9 67.1333 169.3 65.4C171.7 63.6 172.9 61.1667 172.9 58.1C172.9 55.6333 172.133 53.6333 170.6 52.1C169.067 50.5667 166.833 49.4333 163.9 48.7L157.8 47.1C155.533 46.5 153.8 45.7667 152.6 44.9C151.4 43.9667 150.8 42.7667 150.8 41.3C150.8 39.5 151.633 38.0667 153.3 37C155.033 35.9333 157.233 35.4 159.9 35.4C162.367 35.4 164.433 35.9 166.1 36.9C167.767 37.8333 168.7 39.0667 168.9 40.6L166 41C165.667 39.2667 163.633 38.4 159.9 38.4C158.033 38.4 156.533 38.6667 155.4 39.2C154.333 39.6667 153.8 40.3667 153.8 41.3C153.8 41.9 154.167 42.4333 154.9 42.9C155.633 43.3 157.233 43.8667 159.7 44.6L165 46.1C168.467 47.1 171.133 48.5667 173 50.5C174.933 52.4333 175.9 54.9667 175.9 58.1C175.9 62.1 174.4 65.2667 171.4 67.6C168.467 69.8667 164.633 71 159.9 71Z" fill="black"/>
<path d="M199.2 95V14.6H202.2V95H199.2ZM186 95V14.6H189V95H186ZM192.6 95V14.6H195.6V95H192.6ZM263.9 95V14.6H266.9V95H263.9ZM250.7 95V14.6H253.7V95H250.7ZM257.3 95V14.6H260.3V95H257.3ZM230.2 48.6L228.4 45.9L247.1 18.8V24.1L230.2 48.6ZM234.2 65.9L205.8 25.3V20.2L236.1 63.3L234.2 65.9ZM234.3 54.4L232.5 51.7L247.1 30.9V36.1L234.3 54.4ZM230.2 71.8L205.8 37V31.7L232 69.1L230.2 71.8ZM238.3 60.1L236.5 57.5L247.1 42.4V47.6L238.3 60.1ZM226.2 77.5L205.8 48.5V43.2L228 74.9L226.2 77.5Z" fill="#DF25F8"/>
<path d="M135.998 0.687496L135.841 15.5165" stroke="black" stroke-width="3"/>
<path d="M135.446 52.8856L135.289 67.7146" stroke="black" stroke-width="3"/>
<path d="M135.157 80.171L135 95" stroke="black" stroke-width="3"/>
<path d="M135.722 26.7865L135.565 41.6156" stroke="black" stroke-width="3"/>
</svg>
